<svg width="63" height="63" viewBox="0 0 63 63" version="1.1" xmlns="http://www.w3.org/2000/svg" xmlns:xlink="http://www.w3.org/1999/xlink">
<title>Group 2</title>
<desc>Created using Figma</desc>
<g id="Canvas" transform="translate(-39423 -2249)">
<g id="Group 2">
<g id="Ellipse">
<use xlink:href="#path0_fill" transform="translate(39423.6 2249.3)" fill="#F2F2F2"/>
</g>
<g id="Subtract">
<use xlink:href="#path1_fill" transform="translate(39423.6 2249.3)" fill="#333333"/>
</g>
<g id="Group">
<g id="Group">
<g id="Vector">
<use xlink:href="#path2_fill" transform="translate(39442.3 2266.73)" fill="#333333"/>
</g>
<g id="Vector">
<use xlink:href="#path3_fill" transform="translate(39442.3 2276.44)" fill="#333333"/>
</g>
<g id="Vector">
<use xlink:href="#path4_fill" transform="translate(39442.3 2285.75)" fill="#333333"/>
</g>
<g id="Vector">
<use xlink:href="#path5_fill" transform="translate(39452.5 2280.1)" fill="#333333"/>
</g>
<g id="Vector">
<use xlink:href="#path6_fill" transform="translate(39452.5 2270.79)" fill="#333333"/>
</g>
<g id="Vector">
<use xlink:href="#path7_fill" transform="translate(39452.5 2289.41)" fill="#333333"/>
</g>
</g>
</g>
</g>
</g>
<defs>
<path id="path0_fill" d="M 62 31C 62 48.1208 48.1208 62 31 62C 13.8792 62 0 48.1208 0 31C 0 13.8792 13.8792 0 31 0C 48.1208 0 62 13.8792 62 31Z"/>
<path id="path1_fill" fill-rule="evenodd" d="M 31 62.0007C 48.1211 62.0007 62 48.1213 62 31.0005C 62 13.8794 48.1211 0 31 0C 13.8789 0 0 13.8794 0 31.0005C 0 48.1213 13.8789 62.0007 31 62.0007ZM 31 61.0171C 47.5781 61.0171 61.0195 47.5781 61.0195 31.0005C 61.0195 14.4226 47.5781 0.983643 31 0.983643C 14.4219 0.983643 0.984375 14.4226 0.984375 31.0005C 0.984375 47.5781 14.4219 61.0171 31 61.0171Z"/>
<path id="path2_fill" d="M 4.05714 8.51204C 5.84706 8.51204 7.43809 7.35854 7.95518 5.6084C 7.99495 5.48907 7.99495 5.40952 7.9154 5.29019C 7.87563 5.21064 7.79608 5.13109 7.67675 5.09131C 7.47787 5.01176 7.23921 5.13109 7.15966 5.36975C 6.7619 6.72213 5.4493 7.67675 4.01737 7.67675C 2.22745 7.67675 0.755742 6.20504 0.755742 4.41512C 0.795518 2.66498 2.26723 1.19328 4.05714 1.19328C 4.93221 1.19328 5.80728 1.55126 6.40392 2.18767L 6.6028 2.38655L 4.13669 4.85266L 2.78431 3.50028C 2.62521 3.34118 2.38655 3.34118 2.22745 3.50028C 2.1479 3.54005 2.10812 3.65938 2.10812 3.73893C 2.10812 3.81849 2.1479 3.93781 2.22745 4.01737L 3.89804 5.68795C 4.05714 5.84706 4.2958 5.84706 4.4549 5.68795L 9.50644 0.67619C 9.66554 0.517087 9.66554 0.278431 9.50644 0.119328C 9.34734 -0.0397759 9.10868 -0.0397759 8.94958 0.119328L 7.19944 1.86947L 7.00056 1.67059C 6.24482 0.835294 5.17087 0.397759 4.05714 0.397759C 1.82969 0.397759 0 2.22745 0 4.4549C 0 6.68235 1.82969 8.51204 4.05714 8.51204Z"/>
<path id="path3_fill" d="M 4.05714 -1.51733e-07C 1.82969 -1.51733e-07 0 1.82969 0 4.05714C 0 6.28459 1.82969 8.11428 4.05714 8.11428C 6.28459 8.11428 8.11428 6.28459 8.11428 4.05714C 8.11428 1.82969 6.32437 -1.51733e-07 4.05714 -1.51733e-07ZM 4.05714 7.31876C 2.26723 7.31876 0.795518 5.84706 0.795518 4.05714C 0.795518 2.26723 2.26723 0.795518 4.05714 0.795518C 5.84706 0.795518 7.31876 2.26723 7.31876 4.05714C 7.31876 5.84706 5.88683 7.31876 4.05714 7.31876Z"/>
<path id="path4_fill" d="M 4.05714 -3.03466e-07C 1.82969 -3.03466e-07 0 1.82969 0 4.05714C 0 6.28459 1.82969 8.11428 4.05714 8.11428C 6.28459 8.11428 8.11428 6.32437 8.11428 4.05714C 8.11428 1.78992 6.32437 -3.03466e-07 4.05714 -3.03466e-07ZM 4.05714 7.35854C 2.26723 7.35854 0.795518 5.88683 0.795518 4.09692C 0.795518 2.307 2.26723 0.835294 4.05714 0.835294C 5.84706 0.835294 7.31876 2.307 7.31876 4.09692C 7.31876 5.88683 5.88683 7.35854 4.05714 7.35854Z"/>
<path id="path5_fill" d="M 13.9613 -6.06932e-07L 0.397759 -6.06932e-07C 0.159103 -6.06932e-07 -3.03466e-07 0.198879 -3.03466e-07 0.397758C -3.03466e-07 0.596638 0.198879 0.795517 0.397759 0.795517L 13.9613 0.795517C 14.2 0.795517 14.3591 0.596638 14.3591 0.397758C 14.3591 0.198879 14.1602 -6.06932e-07 13.9613 -6.06932e-07Z"/>
<path id="path6_fill" d="M 0.397759 0.795518L 13.9613 0.795518C 14.2 0.795518 14.3591 0.596638 14.3591 0.397759C 14.3591 0.198879 14.1602 -7.58665e-08 13.9613 -7.58665e-08L 0.397759 -7.58665e-08C 0.159103 -7.58665e-08 -3.03466e-07 0.198879 -3.03466e-07 0.397759C -3.03466e-07 0.596638 0.159103 0.795518 0.397759 0.795518Z"/>
<path id="path7_fill" d="M 13.9613 0L 0.397759 0C 0.159103 0 -3.03466e-07 0.198879 -3.03466e-07 0.397759C -3.03466e-07 0.596638 0.198879 0.795518 0.397759 0.795518L 13.9613 0.795518C 14.2 0.795518 14.3591 0.596638 14.3591 0.397759C 14.3591 0.198879 14.1602 0 13.9613 0Z"/>
</defs>
</svg>
