<svg width="63" height="63" viewBox="0 0 63 63" version="1.1" xmlns="http://www.w3.org/2000/svg" xmlns:xlink="http://www.w3.org/1999/xlink">
<title>Group 2</title>
<desc>Created using Figma</desc>
<g id="Canvas" transform="translate(-39530 -2249)">
<g id="Group 2">
<g id="Ellipse">
<use xlink:href="#path0_fill" transform="translate(39530.4 2249.3)" fill="#F2F2F2"/>
</g>
<g id="Subtract">
<use xlink:href="#path1_fill" transform="translate(39530.4 2249.3)" fill="#333333"/>
</g>
<g id="Group">
<g id="Group">
<g id="Group">
<g id="Vector">
<use xlink:href="#path2_fill" transform="translate(39546.4 2265.28)" fill="#333333"/>
</g>
</g>
</g>
</g>
</g>
</g>
<defs>
<path id="path0_fill" d="M 62 31C 62 48.1208 48.1208 62 31 62C 13.8792 62 0 48.1208 0 31C 0 13.8792 13.8792 0 31 0C 48.1208 0 62 13.8792 62 31Z"/>
<path id="path1_fill" fill-rule="evenodd" d="M 31 62.0007C 48.1211 62.0007 62 48.1213 62 31.0005C 62 13.8794 48.1211 0 31 0C 13.8789 0 0 13.8794 0 31.0005C 0 48.1213 13.8789 62.0007 31 62.0007ZM 31 61.0171C 47.5781 61.0171 61.0195 47.5781 61.0195 31.0005C 61.0195 14.4226 47.5781 0.983643 31 0.983643C 14.4219 0.983643 0.984375 14.4226 0.984375 31.0005C 0.984375 47.5781 14.4219 61.0171 31 61.0171Z"/>
<path id="path2_fill" d="M 25.6079 4.38867C 19.7563 -1.46289 10.2411 -1.46289 4.38957 4.38867C 2.34152 6.43672 0.942232 9.01904 0.331634 11.8431C -0.253522 14.5908 -0.0627104 17.4402 0.891349 20.0861C 1.00584 20.4042 1.36202 20.5695 1.66732 20.455C 1.98534 20.3406 2.15071 19.9971 2.03622 19.6791C 1.15849 17.2494 0.980395 14.6289 1.52739 12.1102C 2.0871 9.51516 3.3719 7.14909 5.25458 5.26641C 10.6355 -0.127208 19.3747 -0.127208 24.7428 5.25369C 27.2997 7.81057 28.7372 11.2197 28.7753 14.8324C 28.8135 18.4452 27.4651 21.867 24.9845 24.4875C 24.9591 24.513 24.9209 24.5511 24.8955 24.5766C 24.8446 24.6275 24.7937 24.6911 24.7428 24.7419C 19.3747 30.1101 10.6228 30.1101 5.25458 24.7419C 5.22914 24.7165 5.2037 24.6783 5.16554 24.6529C 5.16554 24.602 5.16554 24.5384 5.16554 24.4875C 5.16554 24.3603 5.16554 24.2458 5.17826 24.1186C 5.17826 24.0805 5.17826 24.0423 5.19098 23.9914C 5.19098 23.9151 5.2037 23.8261 5.2037 23.7497C 5.2037 23.6988 5.21642 23.648 5.21642 23.6098C 5.22914 23.5335 5.22914 23.4699 5.24186 23.3935C 5.24186 23.3427 5.25458 23.2918 5.2673 23.2409C 5.28002 23.1773 5.28002 23.101 5.29274 23.0374C 5.30546 22.9865 5.30546 22.9356 5.31819 22.8847C 5.33091 22.8211 5.34363 22.7448 5.35635 22.6812C 5.36907 22.6303 5.38179 22.5794 5.38179 22.5285C 5.39451 22.4649 5.40723 22.4013 5.41995 22.3377C 5.43267 22.2868 5.44539 22.236 5.45811 22.1851C 5.47084 22.1215 5.48356 22.0579 5.509 21.9943C 5.52172 21.9434 5.53444 21.8925 5.54716 21.8416C 5.55988 21.778 5.58532 21.7144 5.59804 21.6508C 5.61076 21.5999 5.63621 21.549 5.64893 21.4981C 5.67437 21.4345 5.68709 21.3709 5.71253 21.3201C 5.72525 21.2692 5.75069 21.2183 5.76341 21.1674C 5.78886 21.1038 5.80158 21.0529 5.82702 20.9893C 5.85246 20.9384 5.86518 20.8875 5.89062 20.8367C 5.91606 20.7731 5.9415 20.7222 5.96695 20.6586C 5.99239 20.6077 6.00511 20.5568 6.03055 20.5059C 6.05599 20.4423 6.08143 20.3914 6.10688 20.3278C 6.13232 20.2769 6.15776 20.2261 6.1832 20.1752C 6.20864 20.1243 6.23408 20.0607 6.27225 20.0098C 6.29769 19.9589 6.32313 19.908 6.34857 19.8699C 6.37401 19.819 6.41217 19.7554 6.43762 19.7045C 6.46306 19.6536 6.4885 19.6155 6.51394 19.5646C 6.5521 19.5137 6.57754 19.4501 6.61571 19.3992C 6.64115 19.3483 6.66659 19.3102 6.70475 19.2593C 6.74292 19.2084 6.76836 19.1575 6.80652 19.0939C 6.83196 19.043 6.87012 19.0049 6.89556 18.9667C 6.93373 18.9158 6.97189 18.8649 7.01005 18.8141C 7.03549 18.7759 7.07366 18.725 7.0991 18.6868C 7.13726 18.636 7.17542 18.5851 7.21358 18.5342C 7.25175 18.496 7.27719 18.4452 7.31535 18.407C 7.35351 18.3561 7.39168 18.3052 7.44256 18.2543C 7.48072 18.2162 7.50616 18.178 7.54432 18.1271C 7.58249 18.0763 7.63337 18.0254 7.67153 17.9745C 7.7097 17.9363 7.73514 17.8982 7.7733 17.86C 7.81146 17.8091 7.86235 17.7582 7.91323 17.7201C 7.95139 17.6819 7.98955 17.6437 8.02772 17.6056C 8.0786 17.5547 8.11676 17.5165 8.16764 17.4657C 8.20581 17.4275 8.24397 17.3893 8.28213 17.3512C 8.33301 17.3003 8.3839 17.2621 8.43478 17.2112C 8.47294 17.1731 8.51111 17.1476 8.54927 17.1095C 8.60015 17.0586 8.65103 17.0204 8.70192 16.9823C 8.74008 16.9441 8.77824 16.9187 8.81641 16.8805C 8.86729 16.8423 8.93089 16.7915 8.98178 16.7533C 9.01994 16.7278 9.0581 16.6897 9.09626 16.6642C 9.15987 16.6261 9.21075 16.5752 9.27435 16.537C 9.31252 16.5116 9.35068 16.4862 9.38884 16.4607C 9.45245 16.4098 9.51605 16.3717 9.59237 16.3208C 9.63054 16.2953 9.65598 16.2699 9.69414 16.2572C 9.78319 16.2063 9.87223 16.1427 9.96128 16.0918C 9.974 16.0791 9.98672 16.0791 9.99944 16.0664C 10.1012 16.0028 10.203 15.9392 10.3175 15.8883C 10.3556 15.8628 10.3938 15.8501 10.4319 15.8247C 10.5083 15.7865 10.5719 15.7483 10.6482 15.7102C 10.6991 15.6847 10.7372 15.6593 10.7881 15.6466C 10.8517 15.6211 10.9026 15.5957 10.9662 15.5575C 12.0729 16.6134 13.5485 17.2112 15.0878 17.2112C 16.627 17.2112 18.1026 16.6134 19.2093 15.5575C 21.3718 16.5625 23.14 18.3561 24.0941 20.5314C 24.234 20.8367 24.5902 20.9766 24.8955 20.8494C 25.2008 20.7095 25.3407 20.3533 25.2135 20.048C 24.1577 17.6565 22.3386 15.7483 20.0234 14.6035C 20.6976 13.624 21.0538 12.4537 21.0538 11.2579C 21.0538 7.96322 18.3824 5.29185 15.0878 5.29185C 14.757 5.29185 14.4772 5.55899 14.4772 5.90245C 14.4772 6.23319 14.757 6.51305 15.0878 6.51305C 17.7082 6.51305 19.8326 8.63742 19.8326 11.2579C 19.8326 12.4282 19.4001 13.5476 18.6114 14.4254C 17.7082 15.4303 16.4234 16.0028 15.0878 16.0028C 13.7521 16.0028 12.4673 15.4303 11.5641 14.4254C 10.7754 13.5476 10.3429 12.4282 10.3429 11.2579C 10.3429 9.98582 10.839 8.79007 11.7549 7.88689C 11.9966 7.6452 11.9966 7.26357 11.7549 7.02188C 11.5132 6.78018 11.1316 6.78018 10.8899 7.02188C 9.6687 8.14131 9.03266 9.64236 9.03266 11.2452C 9.03266 12.4409 9.38884 13.6113 10.063 14.5908C 10.063 14.5908 10.0503 14.5908 10.0503 14.6035C 9.99944 14.6289 9.96128 14.6544 9.91039 14.6798C 9.83407 14.718 9.77046 14.7561 9.69414 14.7943C 9.64326 14.8197 9.59237 14.8452 9.54149 14.8833C 9.47789 14.9215 9.40156 14.9597 9.33796 14.9978C 9.28707 15.0233 9.23619 15.0614 9.18531 15.0869C 9.1217 15.125 9.0581 15.1632 8.9945 15.2014C 8.94361 15.2395 8.89273 15.265 8.84185 15.3031C 8.77824 15.3413 8.72736 15.3794 8.66376 15.4303C 8.61287 15.4685 8.56199 15.5067 8.51111 15.5321C 8.4475 15.5703 8.39662 15.6211 8.33301 15.6593C 8.28213 15.6975 8.23125 15.7356 8.19309 15.7738C 8.1422 15.8119 8.0786 15.8628 8.02772 15.901C 7.97683 15.9392 7.93867 15.9773 7.88779 16.0155C 7.8369 16.0664 7.78602 16.1045 7.72242 16.1554C 7.67153 16.1936 7.63337 16.2317 7.58249 16.2826C 7.5316 16.3335 7.48072 16.3717 7.42984 16.4225C 7.37895 16.4607 7.34079 16.5116 7.30263 16.5498C 7.25175 16.6006 7.20086 16.6515 7.14998 16.7024C 7.11182 16.7406 7.06093 16.7915 7.02277 16.8296C 6.97189 16.8805 6.92101 16.9314 6.88284 16.9823C 6.84468 17.0204 6.80652 17.0713 6.76836 17.1095C 6.71747 17.1604 6.66659 17.224 6.62843 17.2748C 6.59027 17.313 6.5521 17.3639 6.51394 17.402C 6.46306 17.4657 6.42489 17.5165 6.37401 17.5801C 6.33585 17.6183 6.29769 17.6692 6.27225 17.7073C 6.22136 17.771 6.17048 17.8346 6.13232 17.8982C 6.10688 17.9363 6.06871 17.9745 6.04327 18.0126C 5.97967 18.1017 5.92878 18.178 5.86518 18.2671C 5.85246 18.2925 5.83974 18.3052 5.8143 18.3307C 5.73797 18.4324 5.67437 18.5469 5.59804 18.6614C 5.5726 18.6996 5.54716 18.7377 5.53444 18.7759C 5.49628 18.8522 5.44539 18.9158 5.40723 18.9921C 5.38179 19.043 5.35635 19.0812 5.33091 19.1321C 5.29274 19.1957 5.25458 19.272 5.21642 19.3356C 5.19098 19.3865 5.16554 19.4374 5.14009 19.4883C 5.10193 19.5519 5.07649 19.6155 5.03833 19.6918C 5.01289 19.7427 4.98745 19.7936 4.962 19.8572C 4.93656 19.9208 4.8984 19.9844 4.87296 20.048C 4.84752 20.0989 4.82207 20.1625 4.80935 20.2133C 4.78391 20.2769 4.75847 20.3406 4.73303 20.4169C 4.70759 20.4678 4.69487 20.5314 4.66943 20.5822C 4.64398 20.6459 4.61854 20.7095 4.5931 20.7858C 4.56766 20.8367 4.55494 20.9003 4.5295 20.9512C 4.50405 21.0148 4.47861 21.0911 4.46589 21.1547C 4.45317 21.2183 4.42773 21.2692 4.41501 21.3328C 4.38957 21.3964 4.37685 21.4727 4.35141 21.5363C 4.33868 21.5999 4.31324 21.6508 4.30052 21.7144C 4.2878 21.7907 4.26236 21.8543 4.24964 21.9307C 4.23692 21.9943 4.2242 22.0451 4.21148 22.1087C 4.19876 22.1851 4.18604 22.2487 4.16059 22.325C 4.14787 22.3886 4.13515 22.4395 4.12243 22.5031C 4.10971 22.5794 4.09699 22.6557 4.08427 22.7193C 4.07155 22.7829 4.05883 22.8338 4.05883 22.8974C 4.04611 22.9738 4.03339 23.0501 4.03339 23.1264C 4.02067 23.1773 4.02066 23.2409 4.00794 23.2918C 3.99522 23.3681 3.99522 23.4571 3.9825 23.5335C 3.9825 23.5844 3.96978 23.6352 3.96978 23.6988C 3.95706 23.7879 3.95706 23.8769 3.95706 23.966C 3.95706 24.0169 3.95706 24.055 3.94434 24.1059C 3.94434 24.2458 3.93162 24.373 3.93162 24.513C 3.93162 24.6656 3.93162 24.8056 3.94434 24.9582C 3.94434 24.9964 3.95706 25.0345 3.95706 25.06C 3.95706 25.06 3.95706 25.06 3.95706 25.0727C 3.96978 25.1109 3.96978 25.1363 3.9825 25.1745C 3.9825 25.1745 3.9825 25.1745 3.9825 25.1872C 3.99522 25.2126 4.00794 25.2508 4.03339 25.2762C 4.03339 25.2762 4.03339 25.2889 4.04611 25.2889C 4.05883 25.3144 4.08427 25.3398 4.10971 25.3653L 4.18604 25.4543C 4.24964 25.5179 4.31324 25.5815 4.37685 25.6451C 7.30263 28.5709 11.1443 30.0338 14.986 30.0338C 18.8277 30.0338 22.6693 28.5709 25.5951 25.6451C 25.6587 25.5815 25.7223 25.5179 25.7859 25.4543L 25.8623 25.3653C 28.5718 22.5158 30.0347 18.7886 29.9838 14.8579C 29.9584 10.8763 28.3937 7.17453 25.6079 4.38867Z"/>
</defs>
</svg>
