<svg width="63" height="63" viewBox="0 0 63 63" version="1.1" xmlns="http://www.w3.org/2000/svg" xmlns:xlink="http://www.w3.org/1999/xlink">
<title>Group 2</title>
<desc>Created using Figma</desc>
<g id="Canvas" transform="translate(-39637 -2249)">
<g id="Group 2">
<g id="Ellipse">
<use xlink:href="#path0_fill" transform="translate(39637.2 2249.3)" fill="#F2F2F2"/>
</g>
<g id="Subtract">
<use xlink:href="#path1_fill" transform="translate(39637.2 2249.3)" fill="#333333"/>
</g>
<g id="Group">
<g id="Group">
<g id="Vector">
<use xlink:href="#path2_fill" transform="translate(39670.3 2275.72)" fill="#333333"/>
</g>
<g id="Vector">
<use xlink:href="#path3_fill" transform="translate(39673.1 2269.59)" fill="#333333"/>
</g>
<g id="Vector">
<use xlink:href="#path4_fill" transform="translate(39651.7 2264.58)" fill="#333333"/>
</g>
</g>
</g>
</g>
</g>
<defs>
<path id="path0_fill" d="M 62 31C 62 48.1208 48.1208 62 31 62C 13.8792 62 0 48.1208 0 31C 0 13.8792 13.8792 0 31 0C 48.1208 0 62 13.8792 62 31Z"/>
<path id="path1_fill" fill-rule="evenodd" d="M 31 62.0007C 48.1211 62.0007 62 48.1213 62 31.0005C 62 13.8794 48.1211 0 31 0C 13.8789 0 0 13.8794 0 31.0005C 0 48.1213 13.8789 62.0007 31 62.0007ZM 31 61.0171C 47.5781 61.0171 61.0195 47.5781 61.0195 31.0005C 61.0195 14.4226 47.5781 0.983643 31 0.983643C 14.4219 0.983643 0.984375 14.4226 0.984375 31.0005C 0.984375 47.5781 14.4219 61.0171 31 61.0171Z"/>
<path id="path2_fill" d="M 14.4222 5.05909C 14.3527 4.85047 14.2136 4.71139 14.005 4.64185L 9.69345 4.01598L 7.74631 0.260778C 7.53768 -0.0869262 6.91182 -0.0869262 6.77274 0.260778L 4.82559 4.01598L 0.514067 4.64185C 0.305444 4.64185 0.0968214 4.85047 0.0272806 5.05909C -0.0422601 5.26771 0.0272812 5.47634 0.166363 5.61542L 3.2957 8.53613L 2.53075 12.639C 2.46121 12.8477 2.60029 13.0563 2.73937 13.1954C 2.80891 13.2649 2.94799 13.3344 3.08708 13.3344C 3.15662 13.3344 3.22616 13.3344 3.36524 13.2649L 7.25952 11.3178L 11.1538 13.2649C 11.3624 13.3344 11.571 13.3344 11.7101 13.1954C 11.8492 13.0563 11.9883 12.8477 11.9188 12.639L 11.1538 8.53613L 14.2831 5.61542C 14.4222 5.47634 14.4918 5.26771 14.4222 5.05909ZM 10.1802 7.91026C 10.0412 8.04934 9.97161 8.25797 10.0412 8.39705L 10.5975 11.8045L 7.46814 10.2051C 7.3986 10.1356 7.32906 10.1356 7.18998 10.1356C 7.12044 10.1356 7.0509 10.1356 6.91182 10.2051L 3.85202 11.8045L 4.47789 8.46659C 4.47789 8.25797 4.47789 8.11889 4.33881 7.9798L 1.83534 5.61542L 5.31238 5.12863C 5.521 5.12863 5.66008 4.98955 5.72962 4.85047L 7.32906 1.79068L 8.9285 4.85047C 8.99804 4.98955 9.13712 5.12863 9.34574 5.12863L 12.8228 5.61542L 10.1802 7.91026Z"/>
<path id="path3_fill" d="M -5.30554e-07 2.15576C -5.30554e-07 3.33796 0.973572 4.31153 2.15576 4.31153C 3.33796 4.31153 4.31153 3.33796 4.31153 2.15576C 4.31153 0.973571 3.33796 -1.32638e-07 2.15576 -1.32638e-07C 0.973572 -1.32638e-07 -5.30554e-07 0.973571 -5.30554e-07 2.15576ZM 3.26842 2.15576C 3.26842 2.78163 2.78163 3.19888 2.15576 3.19888C 1.5299 3.19888 1.11265 2.71209 1.11265 2.15576C 1.11265 1.5299 1.59944 1.11265 2.15576 1.11265C 2.78163 1.11265 3.26842 1.59944 3.26842 2.15576Z"/>
<path id="path4_fill" d="M 17.872 1.11265L 24.7565 1.11265L 30.3198 6.60637L 30.3198 13.7691L 31.4324 13.7691L 31.4324 6.11959L 25.1738 0L 17.3852 0L 3.33796 14.0472L 0 17.3852L 13.9777 31.4324L 18.2892 27.3295L 4.93739 14.1168L 17.872 1.11265ZM 16.6898 27.26L 13.9777 29.833L 1.59944 17.3852L 4.17245 14.8122L 16.6898 27.26Z"/>
</defs>
</svg>
