<svg width="63" height="63" viewBox="0 0 63 63" version="1.1" xmlns="http://www.w3.org/2000/svg" xmlns:xlink="http://www.w3.org/1999/xlink">
<title>Group 2</title>
<desc>Created using Figma</desc>
<g id="Canvas" transform="translate(-39744 -2249)">
<g id="Group 2">
<g id="Ellipse">
<use xlink:href="#path0_fill" transform="translate(39744.1 2249.3)" fill="#F2F2F2"/>
</g>
<g id="Subtract">
<use xlink:href="#path1_fill" transform="translate(39744.1 2249.3)" fill="#333333"/>
</g>
<g id="Group">
<g id="Group">
<g id="Vector">
<use xlink:href="#path2_fill" transform="translate(39764.4 2277.01)" fill="#333333"/>
</g>
<g id="Vector">
<use xlink:href="#path3_fill" transform="translate(39764.4 2280.04)" fill="#333333"/>
</g>
<g id="Vector">
<use xlink:href="#path4_fill" transform="translate(39764.4 2283.08)" fill="#333333"/>
</g>
<g id="Vector">
<use xlink:href="#path5_fill" transform="translate(39759.9 2266.4)" fill="#333333"/>
</g>
</g>
</g>
</g>
</g>
<defs>
<path id="path0_fill" d="M 62 31C 62 48.1208 48.1208 62 31 62C 13.8792 62 0 48.1208 0 31C 0 13.8792 13.8792 0 31 0C 48.1208 0 62 13.8792 62 31Z"/>
<path id="path1_fill" fill-rule="evenodd" d="M 31 62.0007C 48.1211 62.0007 62 48.1213 62 31.0005C 62 13.8794 48.1211 0 31 0C 13.8789 0 0 13.8794 0 31.0005C 0 48.1213 13.8789 62.0007 31 62.0007ZM 31 61.0171C 47.5781 61.0171 61.0195 47.5781 61.0195 31.0005C 61.0195 14.4226 47.5781 0.983643 31 0.983643C 14.4219 0.983643 0.984375 14.4226 0.984375 31.0005C 0.984375 47.5781 14.4219 61.0171 31 61.0171Z"/>
<path id="path2_fill" d="M 0.505309 1.01062L 7.07433 1.01062C 7.32698 1.01062 7.57964 0.757964 7.57964 0.505309C 7.57964 0.252655 7.32698 -4.819e-07 7.07433 -4.819e-07L 0.505309 -4.819e-07C 0.252655 -4.819e-07 -1.20475e-07 0.252655 -1.20475e-07 0.505309C -1.20475e-07 0.757964 0.252655 1.01062 0.505309 1.01062Z"/>
<path id="path3_fill" d="M 13.6433 2.4095e-07L 0.505309 2.4095e-07C 0.252655 2.4095e-07 -1.20475e-07 0.252654 -1.20475e-07 0.505309C -1.20475e-07 0.757963 0.252655 1.01062 0.505309 1.01062L 13.6433 1.01062C 13.896 1.01062 14.1487 0.757963 14.1487 0.505309C 14.1487 0.252654 13.896 2.4095e-07 13.6433 2.4095e-07Z"/>
<path id="path4_fill" d="M 13.6433 -2.4095e-07L 0.505309 -2.4095e-07C 0.252655 -2.4095e-07 -1.20475e-07 0.252655 -1.20475e-07 0.50531C -1.20475e-07 0.757964 0.252655 1.01062 0.505309 1.01062L 13.6433 1.01062C 13.896 1.01062 14.1487 0.757964 14.1487 0.50531C 14.1487 0.252655 13.896 -2.4095e-07 13.6433 -2.4095e-07Z"/>
<path id="path5_fill" d="M 27.3498 0.0631636L 10.043 0C 8.40076 0 7.07433 1.32644 7.07433 2.96869L 7.07433 5.5584L 2.96869 5.5584C 1.32644 5.62156 0 6.948 0 8.59025L 0 19.2649C 0 20.9072 1.32644 22.2336 2.96869 22.2336L 6.06371 22.2336L 6.06371 27.2867C 6.06371 27.4762 6.19004 27.6657 6.37953 27.7288C 6.44269 27.7288 6.50585 27.792 6.56902 27.792C 6.69534 27.792 6.82167 27.7288 6.948 27.6025L 11.8748 22.2336L 20.2755 22.1704C 21.9178 22.1704 23.2442 20.844 23.2442 19.2017L 23.2442 19.1386L 25.8971 22.1073C 26.0234 22.2336 26.1497 22.2968 26.2761 22.2968C 26.3392 22.2968 26.4024 22.2968 26.4656 22.2336C 26.6551 22.1704 26.7814 21.9809 26.7814 21.7915L 26.7814 16.7384L 27.3498 16.7384C 28.9921 16.7384 30.3185 15.4119 30.3185 13.7697L 30.3185 3.03185C 30.3185 1.3896 28.9921 0.0631636 27.3498 0.0631636ZM 22.2336 19.2649C 22.2336 20.3387 21.3493 21.223 20.2755 21.223L 11.6221 21.2861C 11.4958 21.2861 11.3695 21.3493 11.2431 21.4756L 7.07433 26.0866L 7.07433 21.8546C 7.07433 21.602 6.82167 21.3493 6.56902 21.3493L 2.96869 21.3493C 1.89491 21.3493 1.01062 20.465 1.01062 19.3912L 1.01062 8.59025C 1.01062 7.51647 1.89491 6.63218 2.96869 6.63218L 7.57964 6.63218L 20.2755 6.63218C 21.3493 6.63218 22.2336 7.51647 22.2336 8.59025L 22.2336 19.2649ZM 29.3079 13.7065C 29.3079 14.7803 28.4236 15.6646 27.3498 15.6646L 26.2761 15.6646C 26.0234 15.6646 25.7708 15.9172 25.7708 16.1699L 25.7708 20.4019L 23.2442 17.6227L 23.2442 8.52709C 23.2442 6.88484 21.9178 5.5584 20.2755 5.5584L 8.08494 5.5584L 8.08494 2.96869C 8.08494 1.89491 8.96923 1.01062 10.043 1.01062L 27.2867 1.07378C 28.3605 1.07378 29.2448 1.95807 29.2448 3.03185L 29.3079 13.7065Z"/>
</defs>
</svg>
